<?xml version="1.0" standalone="no"?><!DOCTYPE svg PUBLIC "-//W3C//DTD SVG 1.1//EN" "http://www.w3.org/Graphics/SVG/1.1/DTD/svg11.dtd"><svg t="1743402951059" class="icon" viewBox="0 0 1024 1024" version="1.1" xmlns="http://www.w3.org/2000/svg" p-id="14150" xmlns:xlink="http://www.w3.org/1999/xlink" width="400" height="400"><path d="M512 94.268c38.434 0 69.623 31.191 69.623 69.622S550.434 233.513 512 233.513s-69.622-31.191-69.622-69.623c0-38.431 31.188-69.622 69.622-69.622zM512 442.379c38.434 0 69.623 31.19 69.623 69.621 0 38.434-31.189 69.622-69.623 69.622S442.378 550.467 442.378 512c0-38.465 31.188-69.621 69.622-69.621zM512 790.488c38.434 0 69.623 31.156 69.623 69.622 0 38.467-31.189 69.623-69.623 69.623s-69.622-31.189-69.622-69.623 31.188-69.622 69.622-69.622z" fill="#C0BDC1" p-id="14151"></path></svg>